<svg width="44" height="44" viewBox="0 0 44 44" xmlns="http://www.w3.org/2000/svg">
<path fill-rule="evenodd" clip-rule="evenodd" d="M22 0C9.84974 0 0 9.84974 0 22C0 34.1503 9.84974 44 22 44C34.1503 44 44 34.1503 44 22C44 9.84974 34.1503 0 22 0ZM31.1683 14.4369C32.178 14.7139 32.9732 15.5303 33.2431 16.5671C33.7335 18.4461 33.7335 22.3666 33.7335 22.3666C33.7335 22.3666 33.7335 26.287 33.2431 28.1662C32.9732 29.2029 32.178 30.0193 31.1683 30.2966C29.3384 30.8 22.0001 30.8 22.0001 30.8C22.0001 30.8 14.6619 30.8 12.8319 30.2966C11.8221 30.0193 11.0269 29.2029 10.7571 28.1662C10.2668 26.287 10.2668 22.3666 10.2668 22.3666C10.2668 22.3666 10.2668 18.4461 10.7571 16.5671C11.0269 15.5303 11.8221 14.7139 12.8319 14.4369C14.6619 13.9333 22.0001 13.9333 22.0001 13.9333C22.0001 13.9333 29.3384 13.9333 31.1683 14.4369Z"/>
<path fill-rule="evenodd" clip-rule="evenodd" d="M19.7999 26.4V19.0667L25.6666 22.7335L19.7999 26.4Z"/>
</svg>
