<svg width="44" height="44" viewBox="0 0 44 44" xmlns="http://www.w3.org/2000/svg">
<path d="M44 22C44 34.1503 34.1503 44 22 44C9.84974 44 0 34.1503 0 22C0 9.84974 9.84974 0 22 0C34.1503 0 44 9.84974 44 22Z"/>
<path d="M22.0021 16.9861C19.2275 16.9861 16.9894 19.2247 16.9894 21.9999C16.9894 24.7752 19.2275 27.0137 22.0021 27.0137C24.7768 27.0137 27.0148 24.7752 27.0148 21.9999C27.0148 19.2247 24.7768 16.9861 22.0021 16.9861ZM22.0021 25.2596C20.2091 25.2596 18.7432 23.7978 18.7432 21.9999C18.7432 20.2021 20.2047 18.7403 22.0021 18.7403C23.7995 18.7403 25.261 20.2021 25.261 21.9999C25.261 23.7978 23.7952 25.2596 22.0021 25.2596ZM28.389 16.7811C28.389 17.4312 27.8655 17.9505 27.2199 17.9505C26.5698 17.9505 26.0507 17.4269 26.0507 16.7811C26.0507 16.1352 26.5742 15.6116 27.2199 15.6116C27.8655 15.6116 28.389 16.1352 28.389 16.7811ZM31.709 17.968C31.6348 16.4014 31.2771 15.0138 30.1297 13.8705C28.9867 12.7273 27.5994 12.3694 26.0332 12.2909C24.419 12.1993 19.5809 12.1993 17.9667 12.2909C16.4049 12.3651 15.0175 12.7229 13.8702 13.8662C12.7228 15.0094 12.3694 16.3971 12.2909 17.9636C12.1993 19.5781 12.1993 24.4174 12.2909 26.0319C12.365 27.5985 12.7228 28.9861 13.8702 30.1294C15.0175 31.2726 16.4005 31.6305 17.9667 31.709C19.5809 31.8006 24.419 31.8006 26.0332 31.709C27.5994 31.6348 28.9867 31.277 30.1297 30.1294C31.2727 28.9861 31.6305 27.5985 31.709 26.0319C31.8006 24.4174 31.8006 19.5825 31.709 17.968ZM29.6237 27.7643C29.2834 28.6196 28.6246 29.2785 27.7652 29.6232C26.4782 30.1337 23.4243 30.0159 22.0021 30.0159C20.5799 30.0159 17.5217 30.1294 16.2391 29.6232C15.384 29.2828 14.7252 28.6239 14.3806 27.7643C13.8702 26.477 13.9879 23.4225 13.9879 21.9999C13.9879 20.5774 13.8745 17.5185 14.3806 16.2356C14.7209 15.3803 15.3796 14.7214 16.2391 14.3767C17.5261 13.8662 20.5799 13.984 22.0021 13.984C23.4243 13.984 26.4826 13.8705 27.7652 14.3767C28.6203 14.7171 29.279 15.376 29.6237 16.2356C30.1341 17.5229 30.0163 20.5774 30.0163 21.9999C30.0163 23.4225 30.1341 26.4814 29.6237 27.7643Z" fill="white"/>
</svg>
