<svg width="358" height="110" viewBox="0 0 358 110" fill="none" xmlns="http://www.w3.org/2000/svg">
<g clip-path="url(#clip0_1_165)">
<path d="M33.1206 35.8803C31.1358 42.9571 25.5537 47.4266 17.8628 47.4266C8.6833 47.4266 0 40.8465 0 26.8171C0 12.7878 8.80735 6.0835 17.8628 6.0835C25.5537 6.0835 31.1358 10.553 33.1206 17.6298L29.3992 18.7472C27.9106 13.1602 24.0651 9.68395 17.8628 9.68395C9.79972 9.68395 3.96951 15.7675 3.96951 26.8171C3.96951 37.8668 9.79972 43.9503 17.8628 43.9503C24.0651 43.9503 27.9106 40.474 29.3992 34.8871L33.1206 35.8803Z" fill="black"/>
<path d="M53.9606 6.58008L68.5981 47.0541H64.6286L60.535 35.5078H43.9127L39.8192 47.0541H35.8497L50.6113 6.58008H53.9606ZM45.1532 31.9074H59.4186L52.2239 11.7945L45.1532 31.9074Z" fill="black"/>
<path d="M78.7698 28.9277V47.0541H74.9244V6.58008H88.6936C95.8883 6.58008 100.354 10.8013 100.354 17.7539C100.354 24.7065 95.8883 28.9277 88.6936 28.9277H78.7698ZM96.3845 17.7539C96.3845 13.5327 94.2757 10.1805 88.8176 10.1805H78.7698V25.3273H88.8176C94.2757 25.3273 96.3845 21.9751 96.3845 17.7539Z" fill="black"/>
<path d="M138.809 14.2776C136.948 10.6772 134.591 9.68396 132.11 9.68396C128.389 9.68396 126.528 12.7878 126.528 15.5192C126.528 25.4514 144.143 22.2235 144.143 35.632C144.143 42.9571 139.057 47.4266 132.606 47.4266C125.908 47.4266 121.566 42.8329 120.202 36.5011L123.551 34.5147C124.916 39.3566 127.024 43.8262 132.606 43.8262C136.948 43.8262 140.173 41.0948 140.173 35.632C140.173 25.5756 122.683 28.0587 122.683 15.8916C122.683 9.93226 127.024 5.95935 132.11 5.95935C137.94 5.95935 140.049 8.69073 141.91 12.167L138.809 14.2776Z" fill="black"/>
<path d="M151.71 6.5802H155.555V34.3906C155.555 39.3567 158.904 43.8263 165.603 43.8263C172.302 43.8263 175.651 39.3567 175.651 34.3906V6.5802H179.496V34.1423C179.496 43.0813 172.922 47.5509 165.603 47.5509C158.284 47.5509 151.71 43.0813 151.71 34.1423V6.5802Z" fill="black"/>
<path d="M201.577 27.0655H194.01V47.0542H190.164V6.5802H203.189C210.384 6.5802 214.726 9.93234 214.726 16.7608C214.726 22.7202 211.376 26.0723 205.918 26.8172L218.447 46.9301H214.229L201.577 27.0655ZM194.01 10.1807V23.4651H202.941C208.151 23.4651 210.88 21.4786 210.88 16.7608C210.88 12.043 208.151 10.0565 202.941 10.0565L194.01 10.1807Z" fill="black"/>
<path d="M280.097 0.0153591L243.97 44.0602L246.559 46.1871L282.686 2.1423L280.097 0.0153591Z" fill="black"/>
<path d="M274.392 43.5779H242.636V46.93H274.392V43.5779Z" fill="black"/>
<path d="M245.985 17.5057H242.636V46.5577H245.985V17.5057Z" fill="black"/>
<path d="M36.0977 69.1534V105.903H54.9529V109.503H32.2523V69.1534H36.0977Z" fill="black"/>
<path d="M84.6001 69.1534V72.7539H65.6209V86.2866H81.1268V89.8871H65.6209V106.027H85.0963V109.627H61.8995V69.1534H84.6001Z" fill="black"/>
<path d="M109.41 76.8511C107.549 73.2507 105.192 72.2574 102.711 72.2574C98.9896 72.2574 97.1289 75.3613 97.1289 78.0927C97.1289 87.9008 114.62 84.7969 114.62 98.0814C114.62 105.282 109.658 109.876 103.083 109.876C96.3846 109.876 92.043 105.282 90.8025 98.9504L94.0277 96.964C95.3922 101.682 97.501 106.276 103.083 106.276C107.425 106.276 110.65 103.544 110.65 98.2055C110.65 88.1491 93.2834 90.7563 93.2834 78.5893C93.2834 72.6299 97.6251 68.657 102.711 68.657C108.541 68.657 110.65 71.3884 112.511 74.8647L109.41 76.8511Z" fill="black"/>
<path d="M142.778 89.1422H135.211V109.007H131.49V68.781H144.391C151.586 68.781 155.927 72.1331 155.927 78.9616C155.927 84.921 152.702 88.2731 147.12 89.018L159.649 109.131H155.431L142.778 89.1422ZM135.335 72.3815V85.6659H144.267C149.477 85.6659 152.206 83.6794 152.206 79.0857C152.206 74.4921 149.477 72.5056 144.267 72.5056H135.335V72.3815Z" fill="black"/>
<path d="M190.784 68.781V72.3815H171.805V85.9142H187.311V89.3905H171.805V105.53H191.281V109.131H167.96V68.781H190.784ZM180.488 57.483H185.823L179.248 65.553H176.395L180.488 57.483Z" fill="black"/>
<path d="M227.999 102.923C225.89 107.02 221.424 109.628 216.09 109.628C207.035 109.628 198.475 102.799 198.475 89.0181C198.475 75.237 207.035 68.4086 216.09 68.4086C224.153 68.4086 229.611 73.0022 231.596 80.2032L227.875 81.1964C226.138 75.3612 222.044 72.009 216.09 72.009C208.151 72.009 202.445 77.9684 202.445 89.0181C202.445 100.068 208.151 106.027 216.09 106.027C223.781 106.027 227.999 101.309 227.999 92.3702H218.695V88.7698H231.844V109.131H228.495L227.999 102.923Z" fill="black"/>
<path d="M245.241 109.131H241.396V68.781H245.241V109.131Z" fill="black"/>
<path d="M289.774 89.0181C289.774 101.806 281.587 109.628 272.159 109.628C262.732 109.628 254.545 101.806 254.545 89.0181C254.545 76.2302 262.732 68.4086 272.159 68.4086C281.587 68.4086 289.774 76.2302 289.774 89.0181ZM258.514 89.0181C258.514 100.316 264.716 106.027 272.159 106.027C279.726 106.027 285.804 100.316 285.804 89.0181C285.804 77.7201 279.602 72.009 272.159 72.009C264.592 71.8849 258.514 77.7201 258.514 89.0181Z" fill="black"/>
<path d="M327.236 68.781V109.131H322.771L302.799 74.9887V109.131H298.954V68.781H303.419L323.515 103.047V68.781H327.236Z" fill="black"/>
<path d="M352.666 76.4786C350.805 72.8781 348.448 71.8849 345.967 71.8849C342.246 71.8849 340.385 74.9887 340.385 77.7201C340.385 87.5282 357.876 84.4244 357.876 97.7088C357.876 104.91 352.914 109.503 346.34 109.503C339.641 109.503 335.299 104.91 334.059 98.5779L337.284 96.5914C338.649 101.309 340.758 105.903 346.34 105.903C350.681 105.903 353.906 103.172 353.906 97.833C353.906 87.7765 336.54 90.3837 336.54 78.2167C336.54 72.2573 340.882 68.2844 345.967 68.2844C351.798 68.2844 353.906 71.0158 355.767 74.4921L352.666 76.4786Z" fill="black"/>
</g>
<defs>
<clipPath id="clip0_1_165">
<rect width="358" height="110" fill="white"/>
</clipPath>
</defs>
</svg>
